<?xml version="1.0" encoding="UTF-8"?><svg xmlns="http://www.w3.org/2000/svg" viewBox="0 0 239.91 336.22"><defs><style>.d{fill:#272727;}</style></defs><g id="a"/><g id="b"><g id="c"><g><g><path class="d" d="M120.21,303.28c-3.53-3.46-7-6.66-10.25-10.09-29.59-31.28-57.86-63.67-80.94-100.16-7.78-12.3-14.4-25.41-20.67-38.56C-2.74,131.23-1.96,107.25,5.87,83.26,22.81,31.37,70.7-1.84,125.54,.08c56.44,1.98,105.08,46.23,113.35,102.12,3.37,22.77-1.95,43.31-11.89,63.28-11.64,23.38-26.52,44.65-42.52,65.18-19.24,24.67-39.98,48.03-61.87,70.37-.77,.78-1.6,1.5-2.4,2.25ZM216.1,120.26c.06-52.98-42.86-96.2-95.59-96.26-53.3-.06-96.42,42.95-96.44,96.2-.02,52.62,43.03,95.78,95.61,95.87,53.2,.08,96.36-42.81,96.42-95.82Z"/><path class="d" d="M125.79,336.22c-33.08-.3-60.65-1.81-87.61-8.51-8.65-2.15-16.93-5.83-25.37-8.85-.81-.29-1.52-.86-2.25-1.34-5.79-3.82-5.89-6.81-.1-10.6,8.38-5.49,17.84-8.65,27.52-10.36,16.32-2.9,32.81-4.91,49.25-7.09,1.36-.18,3.28,.89,4.35,1.97,7.39,7.46,14.59,15.11,21.92,22.62,5.47,5.61,7.68,5.59,13.26-.13,7.34-7.51,14.55-15.14,21.91-22.63,.94-.95,2.49-1.99,3.68-1.91,22.47,1.56,44.79,4.13,66.08,12.07,4.51,1.68,8.86,4.07,12.84,6.77,3.9,2.64,3.93,5.48-.1,7.95-5.06,3.1-10.47,5.87-16.07,7.81-18.41,6.38-37.61,9-56.93,10.55-12.57,1.01-25.2,1.32-32.4,1.68Z"/></g><g><path class="d" d="M39.99,145.61c.43-2.61,.73-5.26,1.33-7.83,1.58-6.75,5.02-12.52,9.88-17.41,9.96-10.03,19.97-20.01,29.97-30.02,.13-.13,.28-.24,.34-.29,11.79,11.8,23.56,23.58,35.32,35.34-1.37,2.2-2.98,4.44-4.25,6.86-5.79,11.02-6.41,22.41-2.09,34.06,.45,1.21,.39,1.98-.61,2.88-3.2,2.86-6.13,6.02-9.49,8.67-5.12,4.05-11.14,6.13-17.6,6.94-.46,.06-.9,.19-1.35,.29h-5.88c-.27-.07-.53-.17-.81-.19-4.78-.43-9.35-1.67-13.62-3.86-10.11-5.2-16.81-13.23-19.74-24.25-.7-2.63-.94-5.39-1.4-8.09v-3.08Z"/><path class="d" d="M87.79,83.73c6.34-6.34,12.76-12.78,19.21-19.19,4.53-4.51,8.91-9.19,13.69-13.41,8.63-7.62,18.85-10.58,30.23-8.91,12.28,1.8,21.6,8.25,27.59,19.07,5.94,10.72,6.31,21.93,1.62,33.27-1.71,4.14-4.23,7.76-7.28,11.02-1.98,2.11-3.94,4.24-5.84,6.42-.62,.72-1.13,.83-2.01,.48-6.63-2.65-13.5-3.54-20.58-2.61-7.57,.99-14.33,3.93-20.33,8.63-.33,.26-.67,.5-.88,.66-11.79-11.79-23.56-23.56-35.42-35.41Z"/><path class="d" d="M145.44,184.49c-14.61-1.27-29.71-14.74-29.32-33.67,.39-19.17,16.23-31.44,29.32-32.29v65.96Z"/><path class="d" d="M154,118.49c13.8,1.21,29.27,13.64,29.27,33,0,19.34-15.42,31.76-29.27,33.01V118.49Z"/></g></g></g></g></svg>